<?xml version="1.0" encoding="UTF-8"?>
<svg id="Layer_1" data-name="Layer 1" xmlns="http://www.w3.org/2000/svg" viewBox="0 0 660.27 639.74">
  <defs>
    <style>
      .cls-1 {
        fill: none;
        stroke: #fff;
        stroke-miterlimit: 16.67;
        stroke-width: 50px;
      }
    </style>
  </defs>
  <path class="cls-1" d="m277.67,25c-13.81,0-25,11.19-25,25,0,.77.04,1.54.11,2.31l18.88,204.12-176.18-80.69c-12.55-5.75-27.39-.23-33.14,12.32-.33.72-.63,1.46-.89,2.22l-35.05,101.06c-4.99,14.37,3.92,29.83,18.85,32.73l192.17,37.36-141.12,154.47c-10.25,11.22-8.2,28.92,4.34,37.5l83.28,56.97c11.39,7.8,26.95,4.88,34.75-6.51.17-.25.33-.5.5-.75l108.15-170.96,98.02,169.83c6.9,11.96,22.18,16.06,34.14,9.16.44-.26.88-.53,1.31-.81l86.83-57.49c12.57-8.32,14.97-25.8,5.11-37.2l-133.37-154.21,195.65-37.67c13.56-2.61,22.43-15.72,19.82-29.28-.15-.76-.33-1.52-.55-2.27l-29.42-100.98c-3.86-13.26-17.74-20.87-30.99-17.01-.93.27-1.84.59-2.73.97l-192.45,81.23,20.75-203.9c1.4-13.74-8.61-26-22.34-27.4-.84-.09-1.69-.13-2.53-.13h-96.88Z"/>
</svg>