<?xml version="1.0" encoding="UTF-8"?>
<svg id="Layer_1" data-name="Layer 1" xmlns="http://www.w3.org/2000/svg" viewBox="0 0 766.67 766.66">
  <defs>
    <style>
      .cls-1 {
        fill: #fff;
        fill-rule: evenodd;
        stroke-width: 0px;
      }
    </style>
  </defs>
  <path class="cls-1" d="m352.42,7.46c25.42-13.06,57.42-9,78.77,12.36l315.66,315.66c26.43,26.43,26.43,69.28,0,95.7l-315.66,315.66c-5.07,5.07-10.8,9.2-16.94,12.36-25.42,13.06-57.42,9-78.77-12.36L19.82,431.18c-26.43-26.43-26.43-69.27,0-95.7L335.48,19.82c5.07-5.07,10.8-9.2,16.94-12.36Zm33.77,61.64c-32.1,53.18-25.18,123.35,20.72,169.25l121.41,121.41c6.25,6.25,9.76,14.73,9.76,23.57s-3.51,17.32-9.76,23.57l-99.74,99.74c23.74,33.01,36.46,71.48,38.18,110.35l232.96-232.95c.14-.14.19-.24.22-.32.04-.1.07-.23.07-.39s-.03-.3-.07-.4c-.03-.07-.08-.17-.22-.32L386.19,69.1Zm-5.71,628.46c32.1-53.18,25.18-123.35-20.72-169.25l-121.41-121.41c-13.02-13.02-13.02-34.12,0-47.14l99.74-99.74c-23.74-33.01-36.46-71.48-38.18-110.35l-232.95,232.95c-.14.14-.19.24-.22.32-.04.1-.07.23-.07.4s.03.3.07.39c.03.08.08.18.22.32l313.52,313.52Zm2.85-388.5l-74.27,74.27,74.27,74.27,74.27-74.27-74.27-74.27Z"/>
</svg>