<?xml version="1.0" encoding="UTF-8"?>
<svg id="Layer_1" data-name="Layer 1" xmlns="http://www.w3.org/2000/svg" viewBox="0 0 716.67 583.33">
  <defs>
    <style>
      .cls-1 {
        fill: #fff;
        fill-rule: evenodd;
        stroke-width: 0px;
      }
    </style>
  </defs>
  <path class="cls-1" d="m358.33,50c-35.35,0-63.64,10.93-131.14,37.93l-93.62,37.45c-33.68,13.47-57.02,22.84-72.15,30.77-1.48.77-2.81,1.5-4.01,2.18,1.2.68,2.53,1.41,4.01,2.18,15.13,7.93,38.47,17.3,72.15,30.77l93.62,37.45c67.5,27,95.79,37.93,131.14,37.93s63.64-10.93,131.14-37.93l93.61-37.45c33.68-13.47,57.02-22.84,72.15-30.77,1.48-.77,2.81-1.5,4.01-2.18-1.2-.68-2.53-1.41-4.01-2.18-15.13-7.93-38.47-17.3-72.15-30.77l-93.61-37.45c-67.5-27-95.79-37.93-131.14-37.93Zm-145.85-10.04C275.04,14.93,312.36,0,358.33,0s83.29,14.93,145.85,39.96c1.27.51,2.56,1.02,3.85,1.54l95.13,38.05c31.82,12.73,57.59,23.04,75.28,32.31,8.95,4.69,17.63,10.02,24.32,16.43,6.87,6.59,13.9,16.59,13.9,30.04s-7.03,23.44-13.9,30.04c-6.69,6.42-15.36,11.74-24.32,16.43-11.72,6.15-26.99,12.74-45.22,20.2,18.23,7.46,33.5,14.05,45.22,20.2,8.95,4.69,17.63,10.02,24.32,16.43,6.87,6.59,13.9,16.59,13.9,30.04s-7.03,23.44-13.9,30.04c-6.69,6.41-15.36,11.74-24.32,16.43-11.72,6.15-26.99,12.74-45.22,20.2,18.23,7.46,33.5,14.05,45.22,20.2,8.95,4.69,17.63,10.02,24.32,16.43,6.87,6.59,13.9,16.59,13.9,30.04s-7.03,23.44-13.9,30.04c-6.69,6.41-15.36,11.74-24.32,16.43-17.69,9.27-43.46,19.58-75.28,32.31l-95.13,38.05c-1.29.52-2.58,1.03-3.85,1.54-62.56,25.03-99.88,39.96-145.85,39.96s-83.29-14.93-145.85-39.96c-1.27-.51-2.56-1.02-3.86-1.54l-95.13-38.05c-31.82-12.73-57.59-23.04-75.28-32.31-8.95-4.69-17.63-10.02-24.32-16.43-6.87-6.59-13.9-16.59-13.9-30.04s7.03-23.44,13.9-30.04c6.69-6.41,15.36-11.74,24.32-16.43,11.72-6.15,26.99-12.74,45.22-20.2-18.23-7.46-33.5-14.05-45.22-20.2-8.95-4.69-17.63-10.02-24.32-16.43-6.87-6.59-13.9-16.59-13.9-30.04s7.03-23.44,13.9-30.04c6.69-6.41,15.36-11.74,24.32-16.43,11.72-6.15,26.99-12.74,45.22-20.2-18.23-7.46-33.5-14.05-45.22-20.2-8.95-4.69-17.63-10.02-24.32-16.43-6.87-6.59-13.9-16.59-13.9-30.04s7.03-23.44,13.9-30.04c6.69-6.42,15.36-11.74,24.32-16.43,17.69-9.27,43.46-19.58,75.28-32.31l95.13-38.05c1.3-.52,2.58-1.03,3.86-1.54Zm-61.94,211.96l-16.96,6.78c-33.68,13.47-57.02,22.84-72.15,30.77-1.48.78-2.81,1.5-4.01,2.18,1.2.68,2.53,1.41,4.01,2.18,15.13,7.93,38.47,17.3,72.15,30.77l93.62,37.45c67.5,27,95.79,37.93,131.14,37.93s63.64-10.93,131.14-37.93l93.61-37.45c33.68-13.47,57.02-22.84,72.15-30.77,1.48-.78,2.81-1.5,4.01-2.18-1.2-.68-2.53-1.41-4.01-2.18-15.13-7.93-38.47-17.3-72.15-30.77l-16.96-6.78-58.09,23.23c-1.29.52-2.58,1.03-3.85,1.54-62.56,25.03-99.88,39.96-145.85,39.96s-83.29-14.93-145.85-39.96c-1.27-.51-2.56-1.02-3.86-1.54l-58.09-23.23Zm0,133.33l-16.96,6.78c-33.68,13.47-57.02,22.84-72.15,30.77-1.48.78-2.81,1.5-4.01,2.18,1.2.68,2.53,1.41,4.01,2.18,15.13,7.93,38.47,17.3,72.15,30.77l93.62,37.45c67.5,27,95.79,37.93,131.14,37.93s63.64-10.93,131.14-37.93l93.61-37.45c33.68-13.47,57.02-22.84,72.15-30.77,1.48-.78,2.81-1.5,4.01-2.18-1.2-.68-2.53-1.41-4.01-2.18-15.13-7.93-38.47-17.3-72.15-30.77l-16.96-6.78-58.09,23.23c-1.29.52-2.58,1.03-3.85,1.54-62.56,25.03-99.88,39.96-145.85,39.96s-83.29-14.93-145.85-39.96c-1.27-.51-2.56-1.02-3.86-1.54l-58.09-23.23Z"/>
</svg>