<?xml version="1.0" encoding="UTF-8"?>
<svg id="Layer_1" data-name="Layer 1" xmlns="http://www.w3.org/2000/svg" viewBox="0 0 784.35 784.44">
  <defs>
    <style>
      .cls-1 {
        fill: #fff;
        stroke-width: 0px;
      }
    </style>
  </defs>
  <path class="cls-1" d="m222.79,592.45l-26.16,31.03-8.14-7.06,27.03-30.13c-4.26-3.97-7.54-7.54-11.7-11.24l6.03-6.05c10.3,9.74,19.36,17.28,30.73,26.43l-5.23,6.66c-4.14-3.24-8.39-6.35-12.56-9.64h0Zm-52.43-77.19l-42.43,24.77c1.53,2.97,3.16,6.46,5.02,9.32l42.52-24.84c-2.08-3.75-3.24-5.75-5.11-9.26h0Zm27.24,39.57l-22.98,19.86,11.7-34.04c-2.07-2.92-3.02-4.95-5.19-7.63l-41.2,27.95c1.83,2.76,4.09,5.32,6.04,8.18l24.77-17.16-11.62,34.3c2.02,2.26,4.04,5.74,6.89,8.04l38.11-32.68c-2.11-2.26-4.66-4.27-6.53-6.82Zm55.92,60.88c6.68,3.64,13.24,7.44,20.56,10.9l4.38-7.26c-10.13-5.23-19.65-11.23-28.18-17.14l-27.96,41.04c10.6,7.03,20.3,12.89,31.2,19.18l4.51-7.25-22.55-13.29,7.62-10.71,14.94,8.98,4.35-6.98c-4.8-2.63-9.79-5.68-15.02-8.89l6.17-8.59h0Zm138.31-153.01c-38.64,0-70.22-31.71-70.22-70.27s31.58-70.38,70.22-70.38,70.18,31.55,70.18,70.38-31.45,70.27-70.18,70.27Zm.87-23.24c25.65,0,46.73-21.07,46.73-46.74,0-21.32-14.82-39.87-35.25-44.96-.25-2.1-.82-11.84-.82-11.84h-23.57s-.54,10.59-.72,12.69c-19.58,5.93-32.77,23.78-32.77,44.11,0,25.67,21.07,46.74,46.4,46.74h0Zm-103.22-312.41v-2.31c-.26-12.72,9.49-23.19,22.3-24.21,13.53-1.32,25.55,8.63,26.69,22.24v1.97c.02,12.86-9.79,23.6-22.6,24.74-13.15,1.16-25.24-8.74-26.38-22.44Zm8.99-.87c.67,8.75,8.42,15.13,16.84,14.4,8.3-.85,14.51-7.49,14.51-15.84.3-.42,0-.89,0-1.45-.73-8.79-8.3-14.96-17.07-14.13-8.33.62-14.59,7.21-14.29,15.58v1.44s0,0,0,0Zm102.3,12.15c-4.13-.04-6.05-.04-10.09-.04l12.25-25.41,11.12-23.08,11.02,1.14,5.79,21.94,8,29.49c-3.7-.69-6.6-1.25-10.08-1.45l-2.85-9.24c-7.28-1.13-13.86-1.48-20.6-1.78l-4.56,8.43h0Zm8.17-16.73c5.36.26,10.34.85,15.36,1.57l-2.64-10.29-3.32-10.59-5,10.59-4.41,8.72Zm-48.95-21.93l4.35,40.23,10.55-1.11-4.13-39.93,15.98-.99-.61-8.96c-17.83,1.02-25.2,1.74-42.86,4.38l1.19,8.51,15.52-2.14h0Zm1.67,544.63l-3.58,30.03-14.43-32.93c-3.39-.66-5.49-1.53-8.9-2.08l-11.32,48.56c3.49.94,6.85,1.31,10.47,1.94l6.06-29.82,14.63,33.23c3.32.49,7.06,1.54,10.94,1.45l5.41-50.16c-2.84-.16-6.21.3-9.28-.21Zm285.23-104.27l-36.08-19.86-4.61,8.31,43.28,24.16,16.68-29.9-7.44-3.98-11.83,21.27h0Zm-54.39,7.27l49.12,16.13c-1.16,1.46-2.08,2.85-3.11,4.32-.85,1.11-1.87,2.22-2.55,3.66l-8.6-3.09-13.41,16.74,4.89,7.67c-2.18,2.5-4.45,4.93-6.81,7.27l-19.46-32.25-7.18-11.89,7.1-8.56h0Zm5.58,11.25l5.83,9.2,5.32,9.28,7.19-9.28,1.87-2.31-20.22-6.9Zm-51.6,65.64c2.11,3.68,3.12,7.94,3.28,12.29,0,3.46-.72,6.88-2.12,10.04-2.3,4.57-5.7,8.67-10.43,11.4-11.54,6.73-26.46,2.71-33.45-9.15-.28-.78-.62-1.53-1.02-2.25-1.41-3.16-2.09-6.64-2.38-10.04.3-8.73,4.55-16.8,12.37-21.33,11.71-6.64,26.83-2.67,33.74,9.04Zm-5.56,12.29c0-2.95-.77-5.59-2.17-8.15-4.09-7.62-13.79-10.08-21.36-5.74-5.32,2.86-8.05,8.29-8.05,13.88.17,2.55.78,5.42,2.3,7.83.47.86,1.04,1.65,1.7,2.37,4.74,5.67,13.11,6.99,19.55,3.24,1.63-.81,3.1-1.91,4.33-3.24,2.35-2.86,3.7-6.69,3.7-10.21Zm23.7-58.68l20.43,22.02-34.3-10.12c-2.85,2.17-4.77,2.93-7.28,5.13l29.84,40.11c2.55-1.98,5.19-4.39,7.57-6.43l-18.12-24.13,34.63,10.43c2.38-2.06,5.79-4.39,8.13-7.33l-34.56-36.52c-1.83,2-3.96,4.63-6.34,6.84h0Zm219.73-185.08c0,4.57-.23,9.17-.72,12.83l-.13.99-1.07.54c-16.68,9.93-38.21,15.58-59.83,16.18-.51,2.73-2.85,22.26-3.26,25,20.15,5.81,39.68,16.82,53.3,30.9l.56.87v.89c-1.07,7.69-3.79,18-6.81,24.68l-.34,1.06-.99.16c-18.89,5.44-41.15,5.23-61.74.14-.99,2.56-8.59,20.69-9.36,23.33,18.04,11.41,34,27.09,42.98,43.82l.47.94-.3.98c-2.81,6.66-8.08,16.3-12.81,22.09l-.51.87h-1.19c-19.28.22-40.82-5.5-59.63-15.98-1.7,2.24-14.26,18.84-15.96,21.06,14.82,15.27,26.04,34.6,30.6,53.68l.3.99-.56.69c-4.3,5.84-12.2,13.58-17.95,18.22l-.68.58-1.42-.28c-18.54-4.95-38.16-16.17-53.4-30.9-2.26,1.7-17.83,13.86-20.14,15.58,9.96,18.25,16,39.24,16,58.21v2.64l-1.15.65c-5.74,4.63-15.28,10.15-22.09,12.94l-.68.29-1.14-.37c-16.7-9.72-32.7-25.58-43.63-43.77-2.64,1.16-21.58,9.27-24.17,10.41,2.59,10.13,4.13,20.72,4.43,31.19,0,10.58-1.83,21.15-4.43,30.71l-.13.95-1.02.55c-6.34,2.64-17.02,5.29-24.47,6.58l-1.16.16-.63-.8c-14.38-13.68-25.41-33.14-31.2-53.47-2.55.19-22.17,2.85-24.94,3.42-.34,21.32-6.2,42.94-16.34,59.7l-.55.88-1.15.15c-6.81,1.04-17.74,1.04-25.15,0l-.92-.15-.65-.88c-9.83-16.76-15.7-38.37-16.17-59.7-2.94-.28-23.61-3.23-26.47-3.42-5.66,20.2-16.76,39.56-30.77,53.4l-.75.71-1.16-.17c-7.66-1.13-17.75-4.09-24.51-6.88l-.81-.4-.34-.86c-2.85-9.52-4.33-20.2-4.33-30.79s1.48-20.76,4.12-30.89c-2.64-1.14-20.51-8.39-23.11-9.54-11.05,18.49-27.03,34.56-43.88,43.93l-.89.5-1.06-.29c-6.98-3.12-16.17-8.39-22.13-12.85l-.72-.73v-2.01c0-19.21,5.85-40.35,15.87-58.84-7.05-5.39-14.11-10.76-21.19-16.11-15.28,14.73-34.73,25.82-53.54,30.64l-.97.3-1.03-.67c-5.74-4.64-13.14-12.11-17.79-17.97l-.63-1.02.29-.99c4.99-18.97,16.26-38.32,30.9-53.35-1.68-2.27-14.3-18.63-16.09-21.09-18.6,10.42-40.35,16.45-59.63,15.96h-1.02l-.68-.66c-4.51-5.97-9.89-15.5-12.81-22.26l-.42-1.01.42-.89c9.72-17,25.58-32.69,43.71-43.55-1.18-2.79-8.89-21.06-10.21-23.63-20.6,5.13-42.98,5.28-61.83,0l-.91-.29-.55-.85c-2.56-6.35-5.35-17.04-6.5-24.56l-.2-1.19.67-.88c13.72-13.97,32.97-25.03,53.58-31.13-.23-2.89-3.25-23.65-3.55-26.53-21.52-.29-43.15-5.84-59.96-15.84l-.85-.56-.09-1.16c-.47-3.49-.6-8.05-.6-12.68s.13-8.94.6-12.71l.09-1.16.85-.46c16.81-9.92,38.44-15.66,59.96-15.98.44-2.84,2.99-23.04,3.32-25.76-20.39-5.84-39.83-17-53.65-30.92l-.56-.68.19-1.08c.88-7.76,3.81-18.14,6.7-24.58l.31-.94,1.01-.29c18.61-5.49,41.11-5.33,61.79-.26,1.15-2.52,8.69-20.73,9.83-23.46-18.26-11.05-34.28-26.77-43.81-43.74l-.49-1.07.49-1.02c3-6.81,8.37-16.04,12.61-21.82l.68-.87h1.16c19.52-.28,41.06,5.68,59.62,15.98,1.74-2.09,14.42-19.22,16.13-21.49-14.73-15.36-25.88-34.6-30.69-53.67l-.21-.82.39-.84c4.73-5.92,12.55-13.6,18.26-18.11l.93-.56.85.17c19.19,4.91,38.52,16.32,53.59,30.97,2.2-1.75,17.28-13.38,19.53-15.07-10.38-18.16-16.17-39.33-16.17-58.14v-2.83l.94-.67c5.65-4.42,15.23-9.91,22.06-12.68l.71-.46,1.14.5c16.81,9.5,32.61,25.41,43.67,43.61,2.64-1,22.26-9.51,24.94-10.59-2.55-10.15-4.16-20.66-4-31.08,0-10.83,1.32-21.14,4.17-30.66l.14-1.18,1.01-.27c6.34-2.65,16.89-5.49,24.3-6.63l1.19-.15.86.75c13.99,13.61,25.14,33.09,31.03,53.63,2.88-.29,23.48-2.89,26.24-3.38.44-21.17,6.23-42.77,16.34-59.56l.42-.88,1.05-.29c7.39-.87,18.27-.87,25.42,0l.94.29.6.88c10.17,16.79,16.05,38.4,16.05,59.37,3.11.69,23.24,3.29,26.1,3.57,6.03-20.55,17.1-39.88,31.18-53.54l.64-.69.94.28c7.66.85,18.05,3.69,24.72,6.61l.82.32.34,1.16c2.86,9.43,4.25,19.69,4.25,30.36-.17,10.52-1.7,21.12-4.25,31.29,2.55,1.04,22.13,9.24,24.85,10.38,10.85-18.2,26.47-33.99,43.45-43.61l.98-.5,1.02.46c6.73,2.86,16.13,8.27,21.92,12.82l.86.54v2.64c0,19.29-5.97,40.36-16.05,58.33,2.17,1.69,18.34,14.34,20.77,16.21,15.23-14.8,34.6-26.12,53.67-30.81l.85-.47.85.89c5.74,4.26,13.49,12.32,17.86,18.1l.82.85-.35.98c-4.84,19.08-16.34,38.43-30.97,53.58,1.7,2.33,13.88,18.36,15.75,20.67,18.97-10.21,40.43-16.05,59.88-15.69h.89l.63.86c4.73,6.03,10.14,15.4,12.78,21.82l.64,1.23-.64.94c-9.66,16.84-25.53,32.43-43.75,43.55,1.1,2.76,8.51,21.05,9.91,23.6,20.43-5.14,42.9-5.26,61.49,0l1.12.22.42,1.07c2.6,6.47,5.61,16.97,6.59,24.7l.16.94-.75.76c-13.66,14.16-33.11,25.24-53.56,31.01.41,2.82,2.96,22.77,3.42,25.61,21.53.46,42.98,6.21,59.67,16.1l1.07.63.13,1.01c.49,3.65.72,8.06.72,12.76h0ZM195.05,163.9l32.22,35.89c4.51,4.84,9.46,4.25,15.98-.85,40.71-31.93,92.93-50.82,148.6-50.82s107.97,18.81,149.08,50.82c6.43,4.74,11.24,5.69,15.96.85l32.23-35.89c3.65-3.97,3.65-9.44-3.33-15.29-54.05-42.08-120.74-68.04-194.07-68.04s-140.56,25.97-193.63,68.23c-6.95,5.66-6.63,11.13-3.03,15.1h0Zm2.18,150.92c-3.54-2.3-7.33-4.93-10.43-3.55-2.52.77-4.35,3.4-5.67,7.69-15.11,51.85-15.11,95.8,0,146.97,1.02,3.33,2.17,6.65,5.19,7.49,2.49,1.03,6.14,0,10.91-3.29l99.75-67.95c3.7-2.49,5.96-6.03,5.96-9.58,0-3.86-2.26-7.26-5.96-9.86l-99.75-67.91h0Zm21.82-59.46c.47,3.64,4.6,5.49,8.21,7.19l108.69,52.8c4.32,2.06,8.34,2.06,11.62.36,3.07-2,5.04-5.48,5.32-10.11l8.77-120.57c.48-5.82-.35-9.24-2.43-11.02-2.3-1.98-5.7-1.43-8.98-.82-52.09,12.52-90.05,34.54-127.46,73.57-3.02,3.41-4.42,6.29-3.74,8.61h0Zm1.57,275.69c0,2.07,1.4,4.64,4.04,7.38,37.42,39.37,75.33,61.27,127.38,73.48,3.32,1.01,6.6,1.51,8.9-.29,2.35-1.75,3.02-5.37,2.64-11.07,0-.18-8.85-120.82-8.85-120.82-.38-4.57-2.12-8.06-5.32-9.9-3.23-1.91-7.28-1.91-11.62.07l-108.57,52.85c-3.79,1.77-7.89,3.76-8.47,7.32,0,.23-.13.69-.13.99h0Zm171.21-60.76c42.99,0,77.92-34.89,77.92-77.86s-34.93-77.9-77.92-78.06c-42.97,0-77.88,35.09-77.88,78.06s34.91,77.86,77.88,77.86Zm32.94,139.57c1.83,1.45,4.85,1.87,9.49.71,51.92-12.46,90.01-34.46,127.12-73.4,2.22-2.56,4.63-5.2,3.91-8.13-.67-2.81-3.05-5.35-8.12-7.73l-108.87-52.83c-4.13-1.95-8.13-1.95-11.45-.21-3.21,2.02-5.15,5.45-5.45,10.22l-8.81,120.5c-.09,3.95-.55,8.45,2.17,10.87Zm162.32-140.44c3.22,2.1,6.98,4.64,10.39,3.46,2.3-.7,4.3-3.24,5.57-7.8,15.24-51.65,15.24-95.78,0-146.82-.94-3.2-2.43-6.51-5.11-7.72-2.73-.97-6.13.15-11.02,3.46l-99.8,67.87c-3.87,2.6-5.83,6.14-5.83,9.8s1.96,7.18,5.83,9.73l99.97,68.01Zm-22-215.99c.13-2.07-1.15-4.67-4.04-7.52-37.08-39.22-75.16-61.16-127.39-73.58-2.92-.76-6.33-1.45-8.59.55-2.34,1.87-3.02,5.49-2.55,10.9l8.61,120.84c.29,4.57,2.34,8.2,5.39,10.04,3.36,1.91,7.36,1.55,11.53-.46l108.82-52.51c3.49-1.69,7.45-3.55,8.21-7.26,0-.23.13-.53,0-1h0ZM100.44,469.1l46.31-13.45c4.34-1.27,7.92-5.83,7.57-11.49-16.63-86.27,4.51-156.2,55.07-212.26,5.11-3.64,5.66-11.13.77-16.25l-33.66-33.84c-3.27-3.74-9.23-3.74-14.32,1.46-64.55,67.92-97.13,172.16-73.23,278.72,1.32,5.11,5.36,8.87,11.49,7.11h0Zm575.78,24.79l-46.43-15.86c-2.43-.9-8.77-.9-12.09,7.27-37.5,89.92-124.79,151.46-225.86,151.46s-190.11-62.95-225.98-152.87c-1.68-4.77-6.83-7.37-11.66-5.87l-46.18,15.86c-5.03,1.8-8.03,6.26-5.41,12.67,45.37,115.75,158.15,197.46,289.23,197.46s244.33-82.28,289.84-197.95c2.37-6.05-.48-10.37-5.46-12.18Zm-53.66-311.09c-4.56-5.57-12.09-4.74-14.26-.85l-33.57,33.71c-4.91,5.12-4.44,12.61.67,16.25,50.65,56.06,71.8,125.85,55.2,212.26-.38,5.66,3.19,10.21,7.62,11.49l46.39,13.45c6.17,1.76,10.13-2,11.45-7.29,23.87-106.39-8.82-210.98-73.5-279.02h0Zm161.8,209.93c0,4.57-.23,9.17-.72,12.83l-.13.99-1.07.54c-16.68,9.93-38.21,15.58-59.83,16.18-.51,2.73-2.85,22.26-3.26,25,20.15,5.81,39.68,16.82,53.3,30.9l.56.87v.89c-1.07,7.69-3.79,18-6.81,24.68l-.34,1.06-.99.16c-18.89,5.44-41.15,5.23-61.74.14-.99,2.56-8.59,20.69-9.36,23.33,18.04,11.41,34,27.09,42.98,43.82l.47.94-.3.98c-2.81,6.66-8.08,16.3-12.81,22.09l-.51.87h-1.19c-19.28.22-40.82-5.5-59.63-15.98-1.7,2.24-14.26,18.84-15.96,21.06,14.82,15.27,26.04,34.6,30.6,53.68l.3.99-.56.69c-4.3,5.84-12.2,13.58-17.95,18.22l-.68.58-1.42-.28c-18.54-4.95-38.16-16.17-53.4-30.9-2.26,1.7-17.83,13.86-20.14,15.58,9.96,18.25,16,39.24,16,58.21v2.64l-1.15.65c-5.74,4.63-15.28,10.15-22.09,12.94l-.68.29-1.14-.37c-16.7-9.72-32.7-25.58-43.63-43.77-2.64,1.16-21.58,9.27-24.17,10.41,2.59,10.13,4.13,20.72,4.43,31.19,0,10.58-1.83,21.15-4.43,30.71l-.13.95-1.02.55c-6.34,2.64-17.02,5.29-24.47,6.58l-1.16.16-.63-.8c-14.38-13.68-25.41-33.14-31.2-53.47-2.55.19-22.17,2.85-24.94,3.42-.34,21.32-6.2,42.94-16.34,59.7l-.55.88-1.15.15c-6.81,1.04-17.74,1.04-25.15,0l-.92-.15-.65-.88c-9.83-16.76-15.7-38.37-16.17-59.7-2.94-.28-23.61-3.23-26.47-3.42-5.66,20.2-16.76,39.56-30.77,53.4l-.75.71-1.16-.17c-7.66-1.13-17.75-4.09-24.51-6.88l-.81-.4-.34-.86c-2.85-9.52-4.33-20.2-4.33-30.79s1.48-20.76,4.12-30.89c-2.64-1.14-20.51-8.39-23.11-9.54-11.05,18.49-27.03,34.56-43.88,43.93l-.89.5-1.06-.29c-6.98-3.12-16.17-8.39-22.13-12.85l-.72-.73v-2.01c0-19.21,5.85-40.35,15.87-58.84-7.05-5.39-14.11-10.76-21.19-16.11-15.28,14.73-34.73,25.82-53.54,30.64l-.97.3-1.03-.67c-5.74-4.64-13.14-12.11-17.79-17.97l-.63-1.02.29-.99c4.99-18.97,16.26-38.32,30.9-53.35-1.68-2.27-14.3-18.63-16.09-21.09-18.6,10.42-40.35,16.45-59.63,15.96h-1.02l-.68-.66c-4.51-5.97-9.89-15.5-12.81-22.26l-.42-1.01.42-.89c9.72-17,25.58-32.69,43.71-43.55-1.18-2.79-8.89-21.06-10.21-23.63-20.6,5.13-42.98,5.28-61.83,0l-.91-.29-.55-.85c-2.56-6.35-5.35-17.04-6.5-24.56l-.2-1.19.67-.88c13.72-13.97,32.97-25.03,53.58-31.13-.23-2.89-3.25-23.65-3.55-26.53-21.52-.29-43.15-5.84-59.96-15.84l-.85-.56-.09-1.16C.13,401.03,0,396.46,0,391.83s.13-8.94.6-12.71l.09-1.16.85-.46c16.81-9.92,38.44-15.66,59.96-15.98.44-2.84,2.99-23.04,3.32-25.76-20.39-5.84-39.83-17-53.65-30.92l-.56-.68.19-1.08c.88-7.76,3.81-18.14,6.7-24.58l.31-.94,1.01-.29c18.61-5.49,41.11-5.33,61.79-.26,1.15-2.52,8.69-20.73,9.83-23.46-18.26-11.05-34.28-26.77-43.81-43.74l-.49-1.07.49-1.02c3-6.81,8.37-16.04,12.61-21.82l.68-.87h1.16c19.52-.28,41.06,5.68,59.62,15.98,1.74-2.09,14.42-19.22,16.13-21.49-14.73-15.36-25.88-34.6-30.69-53.67l-.21-.82.39-.84c4.73-5.92,12.55-13.6,18.26-18.11l.93-.56.85.17c19.19,4.91,38.52,16.32,53.59,30.97,2.2-1.75,17.28-13.38,19.53-15.07-10.38-18.16-16.17-39.33-16.17-58.14v-2.83l.94-.67c5.65-4.42,15.23-9.91,22.06-12.68l.71-.46,1.14.5c16.81,9.5,32.61,25.41,43.67,43.61,2.64-1,22.26-9.51,24.94-10.59-2.55-10.15-4.16-20.66-4-31.08,0-10.83,1.32-21.14,4.17-30.66l.14-1.18,1.01-.27c6.34-2.65,16.89-5.49,24.3-6.63l1.19-.15.86.75c13.99,13.61,25.14,33.09,31.03,53.63,2.88-.29,23.48-2.89,26.24-3.38.44-21.17,6.23-42.77,16.34-59.56l.42-.88,1.05-.29c7.39-.87,18.27-.87,25.42,0l.94.29.6.88c10.17,16.79,16.05,38.4,16.05,59.37,3.11.69,23.24,3.29,26.1,3.57,6.03-20.55,17.1-39.88,31.18-53.54l.64-.69.94.28c7.66.85,18.05,3.69,24.72,6.61l.82.32.34,1.16c2.86,9.43,4.25,19.69,4.25,30.36-.17,10.52-1.7,21.12-4.25,31.29,2.55,1.04,22.13,9.24,24.85,10.38,10.85-18.2,26.47-33.99,43.45-43.61l.98-.5,1.02.46c6.73,2.86,16.13,8.27,21.92,12.82l.86.54v2.64c0,19.29-5.97,40.36-16.05,58.33,2.17,1.69,18.34,14.34,20.77,16.21,15.23-14.8,34.6-26.12,53.67-30.81l.85-.47.85.89c5.74,4.26,13.49,12.32,17.86,18.1l.82.85-.35.98c-4.84,19.08-16.34,38.43-30.97,53.58,1.7,2.33,13.88,18.36,15.75,20.67,18.97-10.21,40.43-16.05,59.88-15.69h.89l.63.86c4.73,6.03,10.14,15.4,12.78,21.82l.64,1.23-.64.94c-9.66,16.84-25.53,32.43-43.75,43.55,1.1,2.76,8.51,21.05,9.91,23.6,20.43-5.14,42.9-5.26,61.49,0l1.12.22.42,1.07c2.6,6.47,5.61,16.97,6.59,24.7l.16.94-.75.76c-13.66,14.16-33.11,25.24-53.56,31.01.41,2.82,2.96,22.77,3.42,25.61,21.53.46,42.98,6.21,59.67,16.1l1.07.63.13,1.01c.49,3.65.72,8.06.72,12.76h0ZM195.05,163.9l32.22,35.89c4.51,4.84,9.46,4.25,15.98-.85,40.71-31.93,92.93-50.82,148.6-50.82s107.97,18.81,149.08,50.82c6.43,4.74,11.24,5.69,15.96.85l32.23-35.89c3.65-3.97,3.65-9.44-3.33-15.29-54.05-42.08-120.74-68.04-194.07-68.04s-140.56,25.97-193.63,68.23c-6.95,5.66-6.63,11.13-3.03,15.1h0Zm2.18,150.92c-3.54-2.3-7.33-4.93-10.43-3.55-2.52.77-4.35,3.4-5.67,7.69-15.11,51.85-15.11,95.8,0,146.97,1.02,3.33,2.17,6.65,5.19,7.49,2.49,1.03,6.14,0,10.91-3.29l99.75-67.95c3.7-2.49,5.96-6.03,5.96-9.58,0-3.86-2.26-7.26-5.96-9.86l-99.75-67.91h0Zm21.82-59.46c.47,3.64,4.6,5.49,8.21,7.19l108.69,52.8c4.32,2.06,8.34,2.06,11.62.36,3.07-2,5.04-5.48,5.32-10.11l8.77-120.57c.48-5.82-.35-9.24-2.43-11.02-2.3-1.98-5.7-1.43-8.98-.82-52.09,12.52-90.05,34.54-127.46,73.57-3.02,3.41-4.42,6.29-3.74,8.61h0Zm1.57,275.69c0,2.07,1.4,4.64,4.04,7.38,37.42,39.37,75.33,61.27,127.38,73.48,3.32,1.01,6.6,1.51,8.9-.29,2.35-1.75,3.02-5.37,2.64-11.07,0-.18-8.85-120.82-8.85-120.82-.38-4.57-2.12-8.06-5.32-9.9-3.23-1.91-7.28-1.91-11.62.07l-108.57,52.85c-3.79,1.77-7.89,3.76-8.47,7.32,0,.23-.13.69-.13.99h0Zm171.21-60.76c42.99,0,77.92-34.89,77.92-77.86s-34.93-77.9-77.92-78.06c-42.97,0-77.88,35.09-77.88,78.06s34.91,77.86,77.88,77.86Zm32.94,139.57c1.83,1.45,4.85,1.87,9.49.71,51.92-12.46,90.01-34.46,127.12-73.4,2.22-2.56,4.63-5.2,3.91-8.13-.67-2.81-3.05-5.35-8.12-7.73l-108.87-52.83c-4.13-1.95-8.13-1.95-11.45-.21-3.21,2.02-5.15,5.45-5.45,10.22l-8.81,120.5c-.09,3.95-.55,8.45,2.17,10.87Zm162.32-140.44c3.22,2.1,6.98,4.64,10.39,3.46,2.3-.7,4.3-3.24,5.57-7.8,15.24-51.65,15.24-95.78,0-146.82-.94-3.2-2.43-6.51-5.11-7.72-2.73-.97-6.13.15-11.02,3.46l-99.8,67.87c-3.87,2.6-5.83,6.14-5.83,9.8s1.96,7.18,5.83,9.73l99.97,68.01Zm-22-215.99c.13-2.07-1.15-4.67-4.04-7.52-37.08-39.22-75.16-61.16-127.39-73.58-2.92-.76-6.33-1.45-8.59.55-2.34,1.87-3.02,5.49-2.55,10.9l8.61,120.84c.29,4.57,2.34,8.2,5.39,10.04,3.36,1.91,7.36,1.55,11.53-.46l108.82-52.51c3.49-1.69,7.45-3.55,8.21-7.26,0-.23.13-.53,0-1h0ZM100.44,469.1l46.31-13.45c4.34-1.27,7.92-5.83,7.57-11.49-16.63-86.27,4.51-156.2,55.07-212.26,5.11-3.64,5.66-11.13.77-16.25l-33.66-33.84c-3.27-3.74-9.23-3.74-14.32,1.46-64.55,67.92-97.13,172.16-73.23,278.72,1.32,5.11,5.36,8.87,11.49,7.11h0Zm575.78,24.79l-46.43-15.86c-2.43-.9-8.77-.9-12.09,7.27-37.5,89.92-124.79,151.46-225.86,151.46s-190.11-62.95-225.98-152.87c-1.68-4.77-6.83-7.37-11.66-5.87l-46.18,15.86c-5.03,1.8-8.03,6.26-5.41,12.67,45.37,115.75,158.15,197.46,289.23,197.46s244.33-82.28,289.84-197.95c2.37-6.05-.48-10.37-5.46-12.18Zm-53.66-311.09c-4.56-5.57-12.09-4.74-14.26-.85l-33.57,33.71c-4.91,5.12-4.44,12.61.67,16.25,50.65,56.06,71.8,125.85,55.2,212.26-.38,5.66,3.19,10.21,7.62,11.49l46.39,13.45c6.17,1.76,10.13-2,11.45-7.29,23.87-106.39-8.82-210.98-73.5-279.02h0Zm161.8,209.93c0,4.57-.23,9.17-.72,12.83l-.13.99-1.07.54c-16.68,9.93-38.21,15.58-59.83,16.18-.51,2.73-2.85,22.26-3.26,25,20.15,5.81,39.68,16.82,53.3,30.9l.56.87v.89c-1.07,7.69-3.79,18-6.81,24.68l-.34,1.06-.99.16c-18.89,5.44-41.15,5.23-61.74.14-.99,2.56-8.59,20.69-9.36,23.33,18.04,11.41,34,27.09,42.98,43.82l.47.94-.3.98c-2.81,6.66-8.08,16.3-12.81,22.09l-.51.87h-1.19c-19.28.22-40.82-5.5-59.63-15.98-1.7,2.24-14.26,18.84-15.96,21.06,14.82,15.27,26.04,34.6,30.6,53.68l.3.99-.56.69c-4.3,5.84-12.2,13.58-17.95,18.22l-.68.58-1.42-.28c-18.54-4.95-38.16-16.17-53.4-30.9-2.26,1.7-17.83,13.86-20.14,15.58,9.96,18.25,16,39.24,16,58.21v2.64l-1.15.65c-5.74,4.63-15.28,10.15-22.09,12.94l-.68.29-1.14-.37c-16.7-9.72-32.7-25.58-43.63-43.77-2.64,1.16-21.58,9.27-24.17,10.41,2.59,10.13,4.13,20.72,4.43,31.19,0,10.58-1.83,21.15-4.43,30.71l-.13.95-1.02.55c-6.34,2.64-17.02,5.29-24.47,6.58l-1.16.16-.63-.8c-14.38-13.68-25.41-33.14-31.2-53.47-2.55.19-22.17,2.85-24.94,3.42-.34,21.32-6.2,42.94-16.34,59.7l-.55.88-1.15.15c-6.81,1.04-17.74,1.04-25.15,0l-.92-.15-.65-.88c-9.83-16.76-15.7-38.37-16.17-59.7-2.94-.28-23.61-3.23-26.47-3.42-5.66,20.2-16.76,39.56-30.77,53.4l-.75.71-1.16-.17c-7.66-1.13-17.75-4.09-24.51-6.88l-.81-.4-.34-.86c-2.85-9.52-4.33-20.2-4.33-30.79s1.48-20.76,4.12-30.89c-2.64-1.14-20.51-8.39-23.11-9.54-11.05,18.49-27.03,34.56-43.88,43.93l-.89.5-1.06-.29c-6.98-3.12-16.17-8.39-22.13-12.85l-.72-.73v-2.01c0-19.21,5.85-40.35,15.87-58.84-7.05-5.39-14.11-10.76-21.19-16.11-15.28,14.73-34.73,25.82-53.54,30.64l-.97.3-1.03-.67c-5.74-4.64-13.14-12.11-17.79-17.97l-.63-1.02.29-.99c4.99-18.97,16.26-38.32,30.9-53.35-1.68-2.27-14.3-18.63-16.09-21.09-18.6,10.42-40.35,16.45-59.63,15.96h-1.02l-.68-.66c-4.51-5.97-9.89-15.5-12.81-22.26l-.42-1.01.42-.89c9.72-17,25.58-32.69,43.71-43.55-1.18-2.79-8.89-21.06-10.21-23.63-20.6,5.13-42.98,5.28-61.83,0l-.91-.29-.55-.85c-2.56-6.35-5.35-17.04-6.5-24.56l-.2-1.19.67-.88c13.72-13.97,32.97-25.03,53.58-31.13-.23-2.89-3.25-23.65-3.55-26.53-21.52-.29-43.15-5.84-59.96-15.84l-.85-.56-.09-1.16C.13,401.03,0,396.46,0,391.83s.13-8.94.6-12.71l.09-1.16.85-.46c16.81-9.92,38.44-15.66,59.96-15.98.44-2.84,2.99-23.04,3.32-25.76-20.39-5.84-39.83-17-53.65-30.92l-.56-.68.19-1.08c.88-7.76,3.81-18.14,6.7-24.58l.31-.94,1.01-.29c18.61-5.49,41.11-5.33,61.79-.26,1.15-2.52,8.69-20.73,9.83-23.46-18.26-11.05-34.28-26.77-43.81-43.74l-.49-1.07.49-1.02c3-6.81,8.37-16.04,12.61-21.82l.68-.87h1.16c19.52-.28,41.06,5.68,59.62,15.98,1.74-2.09,14.42-19.22,16.13-21.49-14.73-15.36-25.88-34.6-30.69-53.67l-.21-.82.39-.84c4.73-5.92,12.55-13.6,18.26-18.11l.93-.56.85.17c19.19,4.91,38.52,16.32,53.59,30.97,2.2-1.75,17.28-13.38,19.53-15.07-10.38-18.16-16.17-39.33-16.17-58.14v-2.83l.94-.67c5.65-4.42,15.23-9.91,22.06-12.68l.71-.46,1.14.5c16.81,9.5,32.61,25.41,43.67,43.61,2.64-1,22.26-9.51,24.94-10.59-2.55-10.15-4.16-20.66-4-31.08,0-10.83,1.32-21.14,4.17-30.66l.14-1.18,1.01-.27c6.34-2.65,16.89-5.49,24.3-6.63l1.19-.15.86.75c13.99,13.61,25.14,33.09,31.03,53.63,2.88-.29,23.48-2.89,26.24-3.38.44-21.17,6.23-42.77,16.34-59.56l.42-.88,1.05-.29c7.39-.87,18.27-.87,25.42,0l.94.29.6.88c10.17,16.79,16.05,38.4,16.05,59.37,3.11.69,23.24,3.29,26.1,3.57,6.03-20.55,17.1-39.88,31.18-53.54l.64-.69.94.28c7.66.85,18.05,3.69,24.72,6.61l.82.32.34,1.16c2.86,9.43,4.25,19.69,4.25,30.36-.17,10.52-1.7,21.12-4.25,31.29,2.55,1.04,22.13,9.24,24.85,10.38,10.85-18.2,26.47-33.99,43.45-43.61l.98-.5,1.02.46c6.73,2.86,16.13,8.27,21.92,12.82l.86.54v2.64c0,19.29-5.97,40.36-16.05,58.33,2.17,1.69,18.34,14.34,20.77,16.21,15.23-14.8,34.6-26.12,53.67-30.81l.85-.47.85.89c5.74,4.26,13.49,12.32,17.86,18.1l.82.85-.35.98c-4.84,19.08-16.34,38.43-30.97,53.58,1.7,2.33,13.88,18.36,15.75,20.67,18.97-10.21,40.43-16.05,59.88-15.69h.89l.63.86c4.73,6.03,10.14,15.4,12.78,21.82l.64,1.23-.64.94c-9.66,16.84-25.53,32.43-43.75,43.55,1.1,2.76,8.51,21.05,9.91,23.6,20.43-5.14,42.9-5.26,61.49,0l1.12.22.42,1.07c2.6,6.47,5.61,16.97,6.59,24.7l.16.94-.75.76c-13.66,14.16-33.11,25.24-53.56,31.01.41,2.82,2.96,22.77,3.42,25.61,21.53.46,42.98,6.21,59.67,16.1l1.07.63.13,1.01c.49,3.65.72,8.06.72,12.76h0ZM195.05,163.9l32.22,35.89c4.51,4.84,9.46,4.25,15.98-.85,40.71-31.93,92.93-50.82,148.6-50.82s107.97,18.81,149.08,50.82c6.43,4.74,11.24,5.69,15.96.85l32.23-35.89c3.65-3.97,3.65-9.44-3.33-15.29-54.05-42.08-120.74-68.04-194.07-68.04s-140.56,25.97-193.63,68.23c-6.95,5.66-6.63,11.13-3.03,15.1h0Zm2.18,150.92c-3.54-2.3-7.33-4.93-10.43-3.55-2.52.77-4.35,3.4-5.67,7.69-15.11,51.85-15.11,95.8,0,146.97,1.02,3.33,2.17,6.65,5.19,7.49,2.49,1.03,6.14,0,10.91-3.29l99.75-67.95c3.7-2.49,5.96-6.03,5.96-9.58,0-3.86-2.26-7.26-5.96-9.86l-99.75-67.91h0Zm21.82-59.46c.47,3.64,4.6,5.49,8.21,7.19l108.69,52.8c4.32,2.06,8.34,2.06,11.62.36,3.07-2,5.04-5.48,5.32-10.11l8.77-120.57c.48-5.82-.35-9.24-2.43-11.02-2.3-1.98-5.7-1.43-8.98-.82-52.09,12.52-90.05,34.54-127.46,73.57-3.02,3.41-4.42,6.29-3.74,8.61h0Zm1.57,275.69c0,2.07,1.4,4.64,4.04,7.38,37.42,39.37,75.33,61.27,127.38,73.48,3.32,1.01,6.6,1.51,8.9-.29,2.35-1.75,3.02-5.37,2.64-11.07,0-.18-8.85-120.82-8.85-120.82-.38-4.57-2.12-8.06-5.32-9.9-3.23-1.91-7.28-1.91-11.62.07l-108.57,52.85c-3.79,1.77-7.89,3.76-8.47,7.32,0,.23-.13.69-.13.99h0Zm171.21-60.76c42.99,0,77.92-34.89,77.92-77.86s-34.93-77.9-77.92-78.06c-42.97,0-77.88,35.09-77.88,78.06s34.91,77.86,77.88,77.86Zm32.94,139.57c1.83,1.45,4.85,1.87,9.49.71,51.92-12.46,90.01-34.46,127.12-73.4,2.22-2.56,4.63-5.2,3.91-8.13-.67-2.81-3.05-5.35-8.12-7.73l-108.87-52.83c-4.13-1.95-8.13-1.95-11.45-.21-3.21,2.02-5.15,5.45-5.45,10.22l-8.81,120.5c-.09,3.95-.55,8.45,2.17,10.87Zm162.32-140.44c3.22,2.1,6.98,4.64,10.39,3.46,2.3-.7,4.3-3.24,5.57-7.8,15.24-51.65,15.24-95.78,0-146.82-.94-3.2-2.43-6.51-5.11-7.72-2.73-.97-6.13.15-11.02,3.46l-99.8,67.87c-3.87,2.6-5.83,6.14-5.83,9.8s1.96,7.18,5.83,9.73l99.97,68.01Zm-22-215.99c.13-2.07-1.15-4.67-4.04-7.52-37.08-39.22-75.16-61.16-127.39-73.58-2.92-.76-6.33-1.45-8.59.55-2.34,1.87-3.02,5.49-2.55,10.9l8.61,120.84c.29,4.57,2.34,8.2,5.39,10.04,3.36,1.91,7.36,1.55,11.53-.46l108.82-52.51c3.49-1.69,7.45-3.55,8.21-7.26,0-.23.13-.53,0-1h0ZM100.44,469.1l46.31-13.45c4.34-1.27,7.92-5.83,7.57-11.49-16.63-86.27,4.51-156.2,55.07-212.26,5.11-3.64,5.66-11.13.77-16.25l-33.66-33.84c-3.27-3.74-9.23-3.74-14.32,1.46-64.55,67.92-97.13,172.16-73.23,278.72,1.32,5.11,5.36,8.87,11.49,7.11h0Zm575.78,24.79l-46.43-15.86c-2.43-.9-8.77-.9-12.09,7.27-37.5,89.92-124.79,151.46-225.86,151.46s-190.11-62.95-225.98-152.87c-1.68-4.77-6.83-7.37-11.66-5.87l-46.18,15.86c-5.03,1.8-8.03,6.26-5.41,12.67,45.37,115.75,158.15,197.46,289.23,197.46s244.33-82.28,289.84-197.95c2.37-6.05-.48-10.37-5.46-12.18Zm-53.66-311.09c-4.56-5.57-12.09-4.74-14.26-.85l-33.57,33.71c-4.91,5.12-4.44,12.61.67,16.25,50.65,56.06,71.8,125.85,55.2,212.26-.38,5.66,3.19,10.21,7.62,11.49l46.39,13.45c6.17,1.76,10.13-2,11.45-7.29,23.87-106.39-8.82-210.98-73.5-279.02h0Zm161.8,209.93c0,4.57-.23,9.17-.72,12.83l-.13.99-1.07.54c-16.68,9.93-38.21,15.58-59.83,16.18-.51,2.73-2.85,22.26-3.26,25,20.15,5.81,39.68,16.82,53.3,30.9l.56.87v.89c-1.07,7.69-3.79,18-6.81,24.68l-.34,1.06-.99.16c-18.89,5.44-41.15,5.23-61.74.14-.99,2.56-8.59,20.69-9.36,23.33,18.04,11.41,34,27.09,42.98,43.82l.47.94-.3.98c-2.81,6.66-8.08,16.3-12.81,22.09l-.51.87h-1.19c-19.28.22-40.82-5.5-59.63-15.98-1.7,2.24-14.26,18.84-15.96,21.06,14.82,15.27,26.04,34.6,30.6,53.68l.3.99-.56.69c-4.3,5.84-12.2,13.58-17.95,18.22l-.68.58-1.42-.28c-18.54-4.95-38.16-16.17-53.4-30.9-2.26,1.7-17.83,13.86-20.14,15.58,9.96,18.25,16,39.24,16,58.21v2.64l-1.15.65c-5.74,4.63-15.28,10.15-22.09,12.94l-.68.29-1.14-.37c-16.7-9.72-32.7-25.58-43.63-43.77-2.64,1.16-21.58,9.27-24.17,10.41,2.59,10.13,4.13,20.72,4.43,31.19,0,10.58-1.83,21.15-4.43,30.71l-.13.95-1.02.55c-6.34,2.64-17.02,5.29-24.47,6.58l-1.16.16-.63-.8c-14.38-13.68-25.41-33.14-31.2-53.47-2.55.19-22.17,2.85-24.94,3.42-.34,21.32-6.2,42.94-16.34,59.7l-.55.88-1.15.15c-6.81,1.04-17.74,1.04-25.15,0l-.92-.15-.65-.88c-9.83-16.76-15.7-38.37-16.17-59.7-2.94-.28-23.61-3.23-26.47-3.42-5.66,20.2-16.76,39.56-30.77,53.4l-.75.71-1.16-.17c-7.66-1.13-17.75-4.09-24.51-6.88l-.81-.4-.34-.86c-2.85-9.52-4.33-20.2-4.33-30.79s1.48-20.76,4.12-30.89c-2.64-1.14-20.51-8.39-23.11-9.54-11.05,18.49-27.03,34.56-43.88,43.93l-.89.5-1.06-.29c-6.98-3.12-16.17-8.39-22.13-12.85l-.72-.73v-2.01c0-19.21,5.85-40.35,15.87-58.84-7.05-5.39-14.11-10.76-21.19-16.11-15.28,14.73-34.73,25.82-53.54,30.64l-.97.3-1.03-.67c-5.74-4.64-13.14-12.11-17.79-17.97l-.63-1.02.29-.99c4.99-18.97,16.26-38.32,30.9-53.35-1.68-2.27-14.3-18.63-16.09-21.09-18.6,10.42-40.35,16.45-59.63,15.96h-1.02l-.68-.66c-4.51-5.97-9.89-15.5-12.81-22.26l-.42-1.01.42-.89c9.72-17,25.58-32.69,43.71-43.55-1.18-2.79-8.89-21.06-10.21-23.63-20.6,5.13-42.98,5.28-61.83,0l-.91-.29-.55-.85c-2.56-6.35-5.35-17.04-6.5-24.56l-.2-1.19.67-.88c13.72-13.97,32.97-25.03,53.58-31.13-.23-2.89-3.25-23.65-3.55-26.53-21.52-.29-43.15-5.84-59.96-15.84l-.85-.56-.09-1.16C.13,401.03,0,396.46,0,391.83s.13-8.94.6-12.71l.09-1.16.85-.46c16.81-9.92,38.44-15.66,59.96-15.98.44-2.84,2.99-23.04,3.32-25.76-20.39-5.84-39.83-17-53.65-30.92l-.56-.68.19-1.08c.88-7.76,3.81-18.14,6.7-24.58l.31-.94,1.01-.29c18.61-5.49,41.11-5.33,61.79-.26,1.15-2.52,8.69-20.73,9.83-23.46-18.26-11.05-34.28-26.77-43.81-43.74l-.49-1.07.49-1.02c3-6.81,8.37-16.04,12.61-21.82l.68-.87h1.16c19.52-.28,41.06,5.68,59.62,15.98,1.74-2.09,14.42-19.22,16.13-21.49-14.73-15.36-25.88-34.6-30.69-53.67l-.21-.82.39-.84c4.73-5.92,12.55-13.6,18.26-18.11l.93-.56.85.17c19.19,4.91,38.52,16.32,53.59,30.97,2.2-1.75,17.28-13.38,19.53-15.07-10.38-18.16-16.17-39.33-16.17-58.14v-2.83l.94-.67c5.65-4.42,15.23-9.91,22.06-12.68l.71-.46,1.14.5c16.81,9.5,32.61,25.41,43.67,43.61,2.64-1,22.26-9.51,24.94-10.59-2.55-10.15-4.16-20.66-4-31.08,0-10.83,1.32-21.14,4.17-30.66l.14-1.18,1.01-.27c6.34-2.65,16.89-5.49,24.3-6.63l1.19-.15.86.75c13.99,13.61,25.14,33.09,31.03,53.63,2.88-.29,23.48-2.89,26.24-3.38.44-21.17,6.23-42.77,16.34-59.56l.42-.88,1.05-.29c7.39-.87,18.27-.87,25.42,0l.94.29.6.88c10.17,16.79,16.05,38.4,16.05,59.37,3.11.69,23.24,3.29,26.1,3.57,6.03-20.55,17.1-39.88,31.18-53.54l.64-.69.94.28c7.66.85,18.05,3.69,24.72,6.61l.82.32.34,1.16c2.86,9.43,4.25,19.69,4.25,30.36-.17,10.52-1.7,21.12-4.25,31.29,2.55,1.04,22.13,9.24,24.85,10.38,10.85-18.2,26.47-33.99,43.45-43.61l.98-.5,1.02.46c6.73,2.86,16.13,8.27,21.92,12.82l.86.54v2.64c0,19.29-5.97,40.36-16.05,58.33,2.17,1.69,18.34,14.34,20.77,16.21,15.23-14.8,34.6-26.12,53.67-30.81l.85-.47.85.89c5.74,4.26,13.49,12.32,17.86,18.1l.82.85-.35.98c-4.84,19.08-16.34,38.43-30.97,53.58,1.7,2.33,13.88,18.36,15.75,20.67,18.97-10.21,40.43-16.05,59.88-15.69h.89l.63.86c4.73,6.03,10.14,15.4,12.78,21.82l.64,1.23-.64.94c-9.66,16.84-25.53,32.43-43.75,43.55,1.1,2.76,8.51,21.05,9.91,23.6,20.43-5.14,42.9-5.26,61.49,0l1.12.22.42,1.07c2.6,6.47,5.61,16.97,6.59,24.7l.16.94-.75.76c-13.66,14.16-33.11,25.24-53.56,31.01.41,2.82,2.96,22.77,3.42,25.61,21.53.46,42.98,6.21,59.67,16.1l1.07.63.13,1.01c.49,3.65.72,8.06.72,12.76h0ZM195.05,163.9l32.22,35.89c4.51,4.84,9.46,4.25,15.98-.85,40.71-31.93,92.93-50.82,148.6-50.82s107.97,18.81,149.08,50.82c6.43,4.74,11.24,5.69,15.96.85l32.23-35.89c3.65-3.97,3.65-9.44-3.33-15.29-54.05-42.08-120.74-68.04-194.07-68.04s-140.56,25.97-193.63,68.23c-6.95,5.66-6.63,11.13-3.03,15.1h0Zm2.18,150.92c-3.54-2.3-7.33-4.93-10.43-3.55-2.52.77-4.35,3.4-5.67,7.69-15.11,51.85-15.11,95.8,0,146.97,1.02,3.33,2.17,6.65,5.19,7.49,2.49,1.03,6.14,0,10.91-3.29l99.75-67.95c3.7-2.49,5.96-6.03,5.96-9.58,0-3.86-2.26-7.26-5.96-9.86l-99.75-67.91h0Zm21.82-59.46c.47,3.64,4.6,5.49,8.21,7.19l108.69,52.8c4.32,2.06,8.34,2.06,11.62.36,3.07-2,5.04-5.48,5.32-10.11l8.77-120.57c.48-5.82-.35-9.24-2.43-11.02-2.3-1.98-5.7-1.43-8.98-.82-52.09,12.52-90.05,34.54-127.46,73.57-3.02,3.41-4.42,6.29-3.74,8.61h0Zm1.57,275.69c0,2.07,1.4,4.64,4.04,7.38,37.42,39.37,75.33,61.27,127.38,73.48,3.32,1.01,6.6,1.51,8.9-.29,2.35-1.75,3.02-5.37,2.64-11.07,0-.18-8.85-120.82-8.85-120.82-.38-4.57-2.12-8.06-5.32-9.9-3.23-1.91-7.28-1.91-11.62.07l-108.57,52.85c-3.79,1.77-7.89,3.76-8.47,7.32,0,.23-.13.69-.13.99h0Zm171.21-60.76c42.99,0,77.92-34.89,77.92-77.86s-34.93-77.9-77.92-78.06c-42.97,0-77.88,35.09-77.88,78.06s34.91,77.86,77.88,77.86Zm32.94,139.57c1.83,1.45,4.85,1.87,9.49.71,51.92-12.46,90.01-34.46,127.12-73.4,2.22-2.56,4.63-5.2,3.91-8.13-.67-2.81-3.05-5.35-8.12-7.73l-108.87-52.83c-4.13-1.95-8.13-1.95-11.45-.21-3.21,2.02-5.15,5.45-5.45,10.22l-8.81,120.5c-.09,3.95-.55,8.45,2.17,10.87Zm162.32-140.44c3.22,2.1,6.98,4.64,10.39,3.46,2.3-.7,4.3-3.24,5.57-7.8,15.24-51.65,15.24-95.78,0-146.82-.94-3.2-2.43-6.51-5.11-7.72-2.73-.97-6.13.15-11.02,3.46l-99.8,67.87c-3.87,2.6-5.83,6.14-5.83,9.8s1.96,7.18,5.83,9.73l99.97,68.01Zm-22-215.99c.13-2.07-1.15-4.67-4.04-7.52-37.08-39.22-75.16-61.16-127.39-73.58-2.92-.76-6.33-1.45-8.59.55-2.34,1.87-3.02,5.49-2.55,10.9l8.61,120.84c.29,4.57,2.34,8.2,5.39,10.04,3.36,1.91,7.36,1.55,11.53-.46l108.82-52.51c3.49-1.69,7.45-3.55,8.21-7.26,0-.23.13-.53,0-1h0ZM100.44,469.1l46.31-13.45c4.34-1.27,7.92-5.83,7.57-11.49-16.63-86.27,4.51-156.2,55.07-212.26,5.11-3.64,5.66-11.13.77-16.25l-33.66-33.84c-3.27-3.74-9.23-3.74-14.32,1.46-64.55,67.92-97.13,172.16-73.23,278.72,1.32,5.11,5.36,8.87,11.49,7.11h0Zm575.78,24.79l-46.43-15.86c-2.43-.9-8.77-.9-12.09,7.27-37.5,89.92-124.79,151.46-225.86,151.46s-190.11-62.95-225.98-152.87c-1.68-4.77-6.83-7.37-11.66-5.87l-46.18,15.86c-5.03,1.8-8.03,6.26-5.41,12.67,45.37,115.75,158.15,197.46,289.23,197.46s244.33-82.28,289.84-197.95c2.37-6.05-.48-10.37-5.46-12.18Zm-53.66-311.09c-4.56-5.57-12.09-4.74-14.26-.85l-33.57,33.71c-4.91,5.12-4.44,12.61.67,16.25,50.65,56.06,71.8,125.85,55.2,212.26-.38,5.66,3.19,10.21,7.62,11.49l46.39,13.45c6.17,1.76,10.13-2,11.45-7.29,23.87-106.39-8.82-210.98-73.5-279.02h0Zm-108.1-12.58l10.68-20.57,28.82-13.4c-3.02-2.17-6.3-3.69-9.35-5.69l-19.85,9.05-3.66-21.56c-4.16-1.97-6.64-2.82-10.97-4.57l5.78,31.35-10.68,20.33,9.24,5.07h0Zm-54.01,466.63c-14.38,3.15-25.45,5.76-39.71,7.98l1.32,8.28c5.27-.83,10.11-1.46,15.66-2.16l7.19,39.88,10.59-2-8.59-39.77c5.45-1.35,10.47-2.72,15.87-3.99l-2.34-8.22h0Zm-141.25,6.98v2.69c-.77,6.58-5.24,13.28-12.47,14.11l1.67,23c-3.35-.77-7.16-1.88-10.75-3.41l-.37-21.64-9.73-4.16-7.88,19.1c-3.19-1.05-6.38-2.07-9.49-3.6l10-23.24,1.19-2.86,8.13-19.18,22.13,8.54c4.92,1.75,7.19,6.14,7.57,10.63h0Zm-9.28,0c-.29-1.39-.85-2.49-2.55-3.27l-12.39-4.56-2.81,7.83-.98,2.86-.08.18,11.28,4.22c3.11,1.37,6.08-1.38,7.16-4.4.37-.83.68-1.86.37-2.86h0Zm150.23-496.42c-3.96-1.15-6.89-1.63-11.24-2.87l8.01-27.36,5.86-19.5c8.47,2.11,16.51,4.85,24.56,7.47,4.55,1.4,6.98,6.56,7.44,12.04.3,7.46-3.4,15.55-10.93,17.25l2.92,22.05c-3.53-1.46-6.13-2.55-10.04-4.09l-2.56-19.27-9.45-2.89-4.59,17.2h0Zm6.77-25.8l11.06,3.57c3.02.86,7.02-3.87,7.02-8,0-1.96-.68-3.7-3.32-4.29-4.09-1.58-6.9-2.28-11.35-3.41l-2.27,7.69-1.15,4.44h0Zm-53.67,545.69l10.68,25.94c-3.49.15-6.75.49-9.88.86l-3.31-8.38-21.38.6-2.46,8.77c-3.33-.28-6.66-.41-10-.4l9.22-27.39,6.57-20.78.32-.66,10.9-.49.55,1.32,8.77,20.61h0Zm-6.47,9.44l-3.84-9.44-3.86-10.21-3.36,10.21-3.32,10.06,14.38-.63Zm65.37-44.06l16.34,46.68c3.19-1.11,6.6-2.07,9.83-3.47l-15.87-46.48c-4.35,1.48-6.34,2.08-10.3,3.27ZM234.81,140.31l-2.73-4.92c7.2-4.56,14.94-8.52,22.39-12.51,8.78-4.84,21.17,6.89,20.3,17.43-.17,1.85-.68,3.54-1.79,5.25l17.96,13.07c-3.39,1.59-5.96,2.94-9.99,4.69l-15.72-11.49-8.68,4.64,9.24,15.28c-3.58,2.28-5.74,3.69-9.92,6.13l-21.06-37.56h0Zm10.85-2.32l1.36,2.32,4.99,8.64,10.37-5.45c.98-.48,1.53-1.69,1.7-3.19.21-4.68-3.18-11.02-8.09-8.07-3.83,2-6.17,3.38-10.34,5.75h0Z"/>
</svg>