<?xml version="1.0" encoding="UTF-8"?>
<svg id="Layer_1" data-name="Layer 1" xmlns="http://www.w3.org/2000/svg" viewBox="0 0 762.58 654.4">
  <defs>
    <style>
      .cls-1 {
        fill: #fff;
        stroke-width: 0px;
      }
    </style>
  </defs>
  <path class="cls-1" d="m306.22,343.77c46.95,0,89.48-18.9,120.4-49.5l-.02.03c24.77,23.75,58.48,38.4,95.6,38.4,76.32,0,138.2-61.88,138.2-138.2s-61.88-138.2-138.2-138.2c-26.92,0-52.05,7.7-73.3,21.03l.58-.33C418.25,30.32,365.72,0,306.12,0c-94.95,0-171.9,76.97-171.9,171.9s76.97,171.9,171.9,171.9h.1v-.03Zm215.53-225h.75c41.95,0,75.95,34,75.95,75.95s-34,75.95-75.95,75.95c-24.07,0-45.55-11.2-59.45-28.68l-.12-.15c9.65-20.53,15.28-44.6,15.28-69.97,0-12.75-1.42-25.17-4.13-37.12l.23,1.13c12.8-10.57,29.37-17,47.45-17.1h.02-.03Zm-215.53-56.48c60.45,0,109.47,49.02,109.47,109.48s-49.03,109.47-109.47,109.47-109.47-49.03-109.47-109.47v-.03h0c.08-60.42,49.05-109.4,109.5-109.48h0l-.03.03Zm455.53,487c-24.57-111.12-122.27-193.03-239.07-193.03-43.65,0-84.6,11.43-120.07,31.45l1.22-.62c-29.08-10.23-62.6-16.23-97.48-16.42h-.1c-148.78.65-273.1,104.5-305.12,243.62l-.4,2.12c-.45,2-.72,4.33-.72,6.7,0,17.27,14,31.27,31.28,31.27,14.9,0,27.35-10.42,30.5-24.38l.05-.2c25.5-113.28,125.25-196.62,244.48-196.62s218.97,83.35,244.15,194.95l.33,1.67c3.18,14.15,15.62,24.55,30.53,24.55,17.25,0,31.25-13.98,31.25-31.25,0-2.37-.27-4.68-.78-6.9l.05.2c-18.65-80.8-66.67-148.08-131.97-191.4l-1.15-.72c13.35-3.53,28.67-5.53,44.47-5.53,86.95,0,159.6,61.1,177.4,142.7l.23,1.2c3.18,14.13,15.6,24.55,30.47,24.55h0c2.4,0,4.72-.27,6.95-.78l-.2.05c14.15-3.15,24.55-15.6,24.55-30.47,0-2.37-.27-4.7-.78-6.93l.05.2h-.1Z"/>
</svg>